<svg height="512" viewBox="0 0 512 512" width="512" xmlns="http://www.w3.org/2000/svg"><g><g fill="#57a4ff"><path d="m476 88h-244v188a19.994 19.994 0 0 1 -20 20h-136a19.994 19.994 0 0 1 -20-20v-188h-20a19.994 19.994 0 0 0 -20 20v276h480v-276a19.994 19.994 0 0 0 -20-20zm-108 264a88 88 0 1 1 88-88 88 88 0 0 1 -88 88z"/><path d="m208 424-16 48h128l-16-48z"/><path d="m168 40 8-24h-64l8 24z"/><path d="m183 128h-71v48h63z"/><path d="m344 288h63l8-48h-71z"/></g><g fill="#004fac"><path d="m476 80h-236v-44a28.031 28.031 0 0 0 -28-28h-136a28.031 28.031 0 0 0 -28 28v44h-12a28.031 28.031 0 0 0 -28 28v296a28.031 28.031 0 0 0 28 28h160.9l-10.67 32h-26.23a8 8 0 0 0 -8 8v24a8 8 0 0 0 8 8h192a8 8 0 0 0 8-8v-24a8 8 0 0 0 -8-8h-26.23l-10.67-32h160.9a28.031 28.031 0 0 0 28-28v-296a28.031 28.031 0 0 0 -28-28zm-311.1-56-2.67 8h-36.46l-2.67-8zm-100.9 12a12.01 12.01 0 0 1 12-12h30.23l6.18 18.53a8 8 0 0 0 7.59 5.47h48a8 8 0 0 0 7.59-5.47l6.18-18.53h30.23a12.01 12.01 0 0 1 12 12v240a12.01 12.01 0 0 1 -12 12h-136a12.01 12.01 0 0 1 -12-12zm280 444v8h-176v-8zm-140.9-16 10.67-32h84.46l10.67 32zm284.9-60a12.01 12.01 0 0 1 -12 12h-440a12.01 12.01 0 0 1 -12-12v-12h464zm0-28h-464v-268a12.01 12.01 0 0 1 12-12h12v180a28.031 28.031 0 0 0 28 28h136a28.031 28.031 0 0 0 28-28v-180h236a12.01 12.01 0 0 1 12 12z"/><path d="m160 264h-32a8 8 0 0 0 0 16h32a8 8 0 0 0 0-16z"/><circle cx="168" cy="200" r="8"/><path d="m128 200c0-4.418-2.582-8-7-8s-9 3.582-9 8a8 8 0 0 0 16 0z"/><path d="m88 120h16v56a8 8 0 0 0 8 8h63a8 8 0 0 0 7.892-6.685l8-48a8 8 0 0 0 -7.892-9.315h-63v-8a8 8 0 0 0 -8-8h-24a8 8 0 0 0 0 16zm80.223 48h-48.223v-32h53.557z"/><path d="m415 232h-63v-8a8 8 0 0 0 -8-8h-24a8 8 0 0 0 0 16h16v56a8 8 0 0 0 8 8h63a8 8 0 0 0 7.892-6.685l8-48a8 8 0 0 0 -7.892-9.315zm-14.777 48h-48.223v-32h53.557z"/><circle cx="400" cy="312" r="8"/><path d="m353 304c-4.418 0-9 3.582-9 8a8 8 0 0 0 16 0c0-4.418-2.582-8-7-8z"/><path d="m368 168a96 96 0 1 0 96 96 96.108 96.108 0 0 0 -96-96zm0 176a80 80 0 1 1 80-80 80.091 80.091 0 0 1 -80 80z"/></g></g></svg>