<svg height="512" viewBox="0 0 60 60" width="512" xmlns="http://www.w3.org/2000/svg"><g id="Page-1" fill="none" fill-rule="evenodd"><g id="011---Online-Education" fill-rule="nonzero"><path id="Shape" d="m59 5v4h-58v-4c0-2.209139 1.790861-4 4-4h50c2.209139 0 4 1.790861 4 4z" fill="#e8edfc"/><path id="Shape" d="m55 1h-3c2.209139 0 4 1.790861 4 4v4h3v-4c0-2.209139-1.790861-4-4-4z" fill="#cad9fc"/><path id="Shape" d="m59 9v46c0 2.209139-1.790861 4-4 4h-50c-2.209139 0-4-1.790861-4-4v-46z" fill="#cad9fc"/><path id="Shape" d="m56 9v46c0 2.209139-1.790861 4-4 4h3c2.209139 0 4-1.790861 4-4v-46z" fill="#a4c2f7"/><circle id="Oval" cx="6" cy="5" fill="#e8edfc" r="1"/><circle id="Oval" cx="10" cy="5" fill="#e8edfc" r="1"/><circle id="Oval" cx="14" cy="5" fill="#e8edfc" r="1"/><path id="Shape" d="m53 6h-1c-.5522847 0-1-.44771525-1-1s.4477153-1 1-1h1c.5522847 0 1 .44771525 1 1s-.4477153 1-1 1z" fill="#428dff"/><path id="Shape" d="m48 6h-6c-.5522847 0-1-.44771525-1-1s.4477153-1 1-1h6c.5522847 0 1 .44771525 1 1s-.4477153 1-1 1z" fill="#428dff"/><path id="Shape" d="m16 47.16c.1460293 1.6286442 1.5250625 2.8680284 3.16 2.84h25.84c.5522847 0 1 .4477153 1 1v2c0 .5522847-.4477153 1-1 1h-25.71c-1.9285358.0181605-3.7842196-.7358019-5.1535844-2.0938963-1.3693648-1.3580943-2.1386375-3.2074837-2.1364156-5.1361037.1272182-3.774516 3.2233409-6.7689089 7-6.77h26c.5522847 0 1 .4477153 1 1v2c0 .5522847-.4477153 1-1 1h-26c-.8241632-.001173-1.612512.3367652-2.1799557.9344725-.5674436.5977073-.8640005 1.4025365-.8200443 2.2255275z" fill="#e8edfc"/><path id="Shape" d="m45 50h-3c.5522847 0 1 .4477153 1 1v2c0 .5522847-.4477153 1-1 1h3c.5522847 0 1-.4477153 1-1v-2c0-.5522847-.4477153-1-1-1z" fill="#cad9fc"/><path id="Shape" d="m45 40h-3c.5522847 0 1 .4477153 1 1v2c0 .5522847-.4477153 1-1 1h3c.5522847 0 1-.4477153 1-1v-2c0-.5522847-.4477153-1-1-1z" fill="#cad9fc"/><path id="Shape" d="m44 43.999997v6.000003h-24.84c-1.6349375.0280284-3.0139707-1.2113558-3.16-2.84-.0439562-.822991.2526007-1.6278202.8200443-2.2255275.5674437-.5977073 1.3557925-.9356455 2.1799557-.9344725z" fill="#e8edfc"/><path id="Rectangle-path" d="m41 44h3v6h-3z" fill="#cad9fc"/><path id="Shape" d="m48 26v2c0 .5522847-.4477153 1-1 1h-2c-.5522847 0-1-.4477153-1-1v-2c-.0026011-.2076171.0312454-.4140805.1-.61.3058703-.9308489 1.2410695-1.5030446 2.2091143-1.3516324.9680448.1514121 1.6838588.9818432 1.6908857 1.9616324z" fill="#e8edfc"/><ellipse id="Oval" cx="30" cy="33" fill="#7facfa" rx="10" ry="3"/><path id="Shape" d="m40 25v8c0-1.66-4.48-3-10-3s-10 1.34-10 3v-8c0-1.66 4.48-3 10-3s10 1.34 10 3z" fill="#a4c2f7"/><path id="Shape" d="m30 22c-.511 0-1.009.015-1.5.037 4.807.218 8.5 1.457 8.5 2.963v5.858c1.849.544 3 1.3 3 2.142v-8c0-1.66-4.48-3-10-3z" fill="#7facfa"/><path id="Shape" d="m50.36 22.96-3.36 1.31c-.5226142-.3038296-1.1549229-.3539005-1.7188428-.1361107-.5639198.2177897-.9984308.6798737-1.1811572 1.2561107l-4.1 1.59v-1.98c0-1.66-4.48-3-10-3s-10 1.34-10 3v1.98l-10.36-4.02c-.39331664-.1497413-.6507865-.5297139-.64407155-.9505171.00671494-.4208032.27617741-.7923673.67407155-.9294829l20-7.02c.2127356-.0799544.4472644-.0799544.66 0l20 7.02c.3978941.1371156.6673566.5086797.6740716.9294829.0067149.4208032-.250755.8007758-.6440716.9505171z" fill="#a4c2f7"/><path id="Shape" d="m27 22c-5.52 0-10 1.34-10 3v.816l3 1.164v-1.98c0-1.506 3.693-2.745 8.5-2.963-.491-.022-.989-.037-1.5-.037z" fill="#7facfa"/><path id="Shape" d="m50.33 21.08-20-7.02c-.212719-.0800456-.447281-.0800456-.66 0l-1.17.411 18.83 6.609c.3978941.1371156.6673566.5086797.6740716.9294829.0067149.4208032-.250755.8007758-.6440716.9505171l-3.36 1.31c-.5226142-.3038296-1.1549229-.3539005-1.7188428-.1361107-.5639198.2177897-.9984308.6798737-1.1811572 1.2561107l-1.1.427v1.163l4.1-1.59c.1827264-.576237.6172374-1.038321 1.1811572-1.2561107.5639199-.2177898 1.1962286-.1677189 1.7188428.1361107l3.36-1.31c.3933166-.1497413.6507865-.5297139.6440716-.9505171-.006715-.4208032-.2761775-.7923673-.6740716-.9294829z" fill="#7facfa"/><path id="Shape" d="m5 59h3c-2.209139 0-4-1.790861-4-4v-50c0-2.209139 1.790861-4 4-4h-3c-2.209139 0-4 1.790861-4 4v50c0 2.209139 1.790861 4 4 4z" fill="#fff"/><path id="Rectangle-path" d="m0 47h2v8h-2z" fill="#fff"/><g fill="#4590ff"><path id="Shape" d="m1.02 52c-.55228473.0027614-1.00223852-.4427153-1.00499994-.995-.00276143-.5522847.44271521-1.0022385.99499994-1.005h.01c.55228475 0 1 .4477153 1 1s-.44771525 1-1 1z"/><path id="Shape" d="m55 0h-50c-2.76005315.00330612-4.99669388 2.23994685-5 5v42c0 .5522847.44771525 1 1 1s1-.4477153 1-1v-37h56v45c0 1.6568542-1.3431458 3-3 3h-50c-1.65685425 0-3-1.3431458-3-3 0-.5522847-.44771525-1-1-1s-1 .4477153-1 1c.00330612 2.7600532 2.23994685 4.9966939 5 5h50c2.7600532-.0033061 4.9966939-2.2399468 5-5v-50c-.0033061-2.76005315-2.2399468-4.99669388-5-5zm3 8h-56v-3c0-1.65685425 1.34314575-3 3-3h50c1.6568542 0 3 1.34314575 3 3z"/><path id="Shape" d="m47 43v-2c0-1.1045695-.8954305-2-2-2h-26c-4.3190772-.0022641-7.8601704 3.4241863-8 7.741-.059203 2.1236971.7522056 4.1793138 2.246 5.69 1.5864216 1.6348327 3.7649862 2.560984 6.043 2.569h25.711c1.1045695 0 2-.8954305 2-2v-2c0-1.1045695-.8954305-2-2-2v-4c1.1045695 0 2-.8954305 2-2zm-28 0c-1.0966733-.0000845-2.1452832.4501022-2.9005468 1.2452559-.7552636.7951536-1.1509319 1.8655261-1.0944532 2.9607441.1540742 2.1711654 1.98386 3.8399653 4.16 3.794h25.835v2h-25.711c-1.7346224-.0086219-3.3926814-.7154596-4.6-1.961-1.1185312-1.1228798-1.7288267-2.6545806-1.689-4.239.1079045-3.2353509 2.7628507-5.8017989 6-5.8l26-.0000009v2.0000009zm24 1.9999981v4.0000019h-23.835c-1.1063359.0321209-2.0503378-.7941533-2.165-1.895-.0288302-.54838.169086-1.0844907.5473289-1.4825913.3782429-.3981007.9035343-.623166 1.4526711-.6224087z"/><path id="Shape" d="m52 21.99c-.0063908-.8400322-.5442458-1.5837973-1.34-1.853l-19.973-7.012c-.433253-.1673325-.9127915-.1701784-1.348-.008l-19.992 7.016c-.79584499.2726685-1.33598471 1.0142089-1.35142422 1.8553266s.49712216 1.6019814 1.28242422 1.9036734l9.722 3.777v5.331c0 2.748 5.7 4 11 4s11-1.252 11-4v-5.331l2-.778v1.109c0 1.1045695.8954305 2 2 2h2c1.1045695 0 2-.8954305 2-2v-2c-.0027502-.4561695-.110898-.9055306-.316-1.313l2.03-.792c.791474-.2952449 1.3080986-1.0605402 1.286-1.905zm-22 13.01c-5.85 0-8.849-1.46-9-1.985.151-.555 3.15-2.015 9-2.015 5.8 0 8.8 1.434 9 2-.2.566-3.2 2-9 2zm9-4.428c-2.128-1.067-5.643-1.572-9-1.572s-6.872.5-9 1.573v-5.558c.151-.555 3.15-2.015 9-2.015s8.849 1.46 9 2zm4.36-5.967-2.36.918v-.523c0-2.748-5.7-4-11-4s-11 1.252-11 4v.523l-9-3.5 20-7.023 15 5.27v2.911c-.7053354.2531713-1.2903777.7611592-1.64 1.424zm3.64 3.395h-2v-2c0-.5522847.4477153-1 1-1s1 .4477153 1 1zm.018-4.81-.018-.006v-2.208l3 1.052z"/></g></g></g></svg>