<svg height="512" viewBox="0 0 512 512" width="512" xmlns="http://www.w3.org/2000/svg"><g id="Flat"><g fill="#60d1e0"><path d="m128 248h56v16h-56z"/><path d="m163.502 114.783h15.997v70.434h-15.997z" transform="matrix(.625 -.781 .781 .625 -52.766 190.215)"/><path d="m328 248h56v16h-56z"/><path d="m313.077 139.503h61.847v15.995h-61.847z" transform="matrix(.776 -.631 .631 .776 -15.998 249.939)"/><path d="m334.001 332h15.998v65h-15.998z" transform="matrix(.6 -.8 .8 .6 -154.8 419.4)"/></g><path d="m328 248h16v16h-16z" fill="#5ac6d4"/><path d="m314.957 160.793 10.086 12.414 18.957-15.403v-20.609z" fill="#5ac6d4"/><path d="m311.199 351.398 32.801 24.601v-19.998l-23.199-17.399z" fill="#5ac6d4"/><path d="m136.466 355h66.068v16.001h-66.068z" fill="#60d1e0" transform="matrix(.772 -.636 .636 .772 -192.104 190.542)"/><path d="m184 128h144v256h-144z" fill="#348fd9"/><path d="m304 128h24v256h-24z" fill="#3086cd"/><path d="m208 152h16v16h-16z" fill="#4db7e5"/><path d="m240 152h64v16h-64z" fill="#4db7e5"/><path d="m184 184h144v16h-144z" fill="#2a71ad"/><path d="m208 216h16v16h-16z" fill="#4db7e5"/><path d="m240 216h64v16h-64z" fill="#4db7e5"/><path d="m184 248h144v16h-144z" fill="#2a71ad"/><path d="m208 280h16v16h-16z" fill="#4db7e5"/><path d="m240 280h64v16h-64z" fill="#4db7e5"/><path d="m184 312h144v16h-144z" fill="#2a71ad"/><path d="m208 344h16v16h-16z" fill="#4db7e5"/><path d="m240 344h64v16h-64z" fill="#4db7e5"/><rect fill="#60d1e0" height="56" rx="8" width="80" x="72" y="24"/><path d="m120 104v-24h-16v24h-16v16h48v-16z" fill="#348fd9"/><path d="m104 80h16v16h-16z" fill="#2a71ad"/><path d="m144 24-56 56h56a8 8 0 0 0 8-8v-40a8 8 0 0 0 -8-8z" fill="#5ac6d4"/><rect fill="#60d1e0" height="56" rx="8" width="80" x="360" y="24"/><path d="m408 104v-24h-16v24h-16v16h48v-16z" fill="#348fd9"/><path d="m392 80h16v16h-16z" fill="#2a71ad"/><path d="m432 24-56 56h56a8 8 0 0 0 8-8v-40a8 8 0 0 0 -8-8z" fill="#5ac6d4"/><rect fill="#60d1e0" height="56" rx="8" width="80" x="408" y="224"/><path d="m456 304v-24h-16v24h-16v16h48v-16z" fill="#348fd9"/><path d="m440 280h16v16h-16z" fill="#2a71ad"/><path d="m480 224-56 56h56a8 8 0 0 0 8-8v-40a8 8 0 0 0 -8-8z" fill="#5ac6d4"/><rect fill="#60d1e0" height="56" rx="8" width="80" x="24" y="216"/><path d="m72 296v-24h-16v24h-16v16h48v-16z" fill="#348fd9"/><path d="m56 272h16v16h-16z" fill="#2a71ad"/><path d="m96 216-56 56h56a8 8 0 0 0 8-8v-40a8 8 0 0 0 -8-8z" fill="#5ac6d4"/><rect fill="#60d1e0" height="56" rx="8" width="80" x="72" y="400"/><path d="m120 480v-24h-16v24h-16v16h48v-16z" fill="#348fd9"/><path d="m104 456h16v16h-16z" fill="#2a71ad"/><path d="m144 400-56 56h56a8 8 0 0 0 8-8v-40a8 8 0 0 0 -8-8z" fill="#5ac6d4"/><rect fill="#60d1e0" height="56" rx="8" width="80" x="360" y="400"/><path d="m408 480v-24h-16v24h-16v16h48v-16z" fill="#348fd9"/><path d="m392 456h16v16h-16z" fill="#2a71ad"/><path d="m432 400-56 56h56a8 8 0 0 0 8-8v-40a8 8 0 0 0 -8-8z" fill="#5ac6d4"/></g></svg>