<svg id="Capa_1" enable-background="new 0 0 512 512" height="512" viewBox="0 0 512 512" width="512" xmlns="http://www.w3.org/2000/svg"><g><path d="m49.847 505.268-1.678-44.989c-.325-8.703-3.101-17.138-8.01-24.332l-29.754-43.604c-13.55-19.857-13.892-45.897-.868-66.103l49.373-76.662 35.416 112.438-13.456 143.625-27.062 3.038c-2.061.231-3.883-1.338-3.961-3.411z" fill="#f1d0a5"/><path d="m462.197 504.089 1.634-43.81c.325-8.703 3.101-17.138 8.01-24.332l29.754-43.604c13.55-19.857 13.892-45.897.868-66.103l-49.431-76.604-35.358 112.38 13.455 143.625 25.89 2.906c2.694.303 5.077-1.749 5.178-4.458z" fill="#f1d0a5"/><path d="m502.464 326.24-49.431-76.604-5.895 26.131 32.533 50.472c13.024 20.206 12.682 46.246-.868 66.104l-29.754 43.604c-4.909 7.194-7.686 15.628-8.01 24.331l-1.726 46.281 17.708 1.988c2.694.302 5.076-1.749 5.177-4.458l1.634-43.81c.325-8.703 3.101-17.138 8.01-24.331l29.754-43.604c13.55-19.858 13.892-45.898.868-66.104z" fill="#f1b986"/><path d="m431.099 372.424h-350.198c-12.995 0-23.529-10.534-23.529-23.529v-233.462c0-12.995 10.534-23.529 23.529-23.529h350.199c12.995 0 23.529 10.534 23.529 23.529v233.461c0 12.996-10.535 23.53-23.53 23.53z" fill="#365e7d"/><path d="m431.099 91.904h-15.977c12.995 0 23.529 10.535 23.529 23.529v233.461c0 12.995-10.534 23.529-23.529 23.529h15.977c12.995 0 23.53-10.534 23.53-23.529v-233.461c0-12.994-10.535-23.529-23.53-23.529z" fill="#2b4d66"/><path d="m420.871 124.382h-320.92c-.705 0-1.28.607-1.28 1.353v212.858c0 .746.574 1.353 1.28 1.353h320.92c.706 0 1.28-.607 1.28-1.353v-212.858c0-.746-.574-1.353-1.28-1.353z" fill="#d3effb"/><path d="m420.871 124.382h-17.093c.706 0 1.281.607 1.281 1.353v212.858c0 .746-.574 1.353-1.281 1.353h17.093c.706 0 1.281-.607 1.281-1.353v-212.858c-.001-.746-.575-1.353-1.281-1.353z" fill="#b1e4f9"/><g><path d="m78.223 245.47c-4.268 0-7.726-3.459-7.726-7.726v-11.159c0-4.268 3.459-7.726 7.726-7.726 4.268 0 7.726 3.459 7.726 7.726v11.159c0 4.267-3.458 7.726-7.726 7.726z" fill="#2b4d66"/></g><path d="m116.613 498.652.76-32.681c.133-5.71 1.159-11.363 3.042-16.755 5.289-15.146 2.294-31.954-7.902-44.34-2.146-2.607-2.482-6.261-.846-9.216l43.331-78.288c3.514-6.349 2.352-14.263-2.838-19.335-6.498-6.349-16.956-6.077-23.115.602l-72.078 78.164 4.742 54.473 19.161 74.365 32.561-3.526c1.78-.193 3.14-1.674 3.182-3.463z" fill="#f1d0a5"/><path d="m154.997 317.372c3.514-6.349 2.352-14.263-2.838-19.335-5.855-5.72-14.914-6.048-21.157-1.175.465.364.918.753 1.35 1.175 5.19 5.071 6.352 12.986 2.838 19.335l-43.331 78.288c-1.635 2.955-1.3 6.609.847 9.216 10.196 12.387 13.191 29.194 7.902 44.341-1.883 5.392-2.909 11.046-3.042 16.755l-.651 27.99c-.104 4.473-3.506 8.176-7.955 8.658l-6.485.702c-1.13.122-1.888 1.218-1.605 2.319l32.561-3.526c1.779-.193 3.139-1.674 3.181-3.462l.737-31.71c.14-6.013 1.061-12.008 3.05-17.684 5.31-15.157 2.318-31.985-7.887-44.383-2.146-2.607-2.482-6.261-.847-9.216z" fill="#f1b986"/><path d="m395.365 497.693-.737-31.721c-.133-5.71-1.159-11.363-3.042-16.755-5.289-15.146-2.294-31.954 7.902-44.34 2.146-2.607 2.482-6.261.846-9.216l-43.331-78.288c-3.514-6.349-2.352-14.263 2.838-19.335 6.498-6.349 16.956-6.077 23.115.602l72.078 78.164-4.742 54.473-19.161 74.365-31.607-3.423c-2.326-.253-4.105-2.189-4.159-4.526z" fill="#f1d0a5"/><path d="m356.535 232.164h-181.946v-221.717c0-3.948 3.201-7.149 7.149-7.149h167.648c3.948 0 7.149 3.201 7.149 7.149z" fill="#f6f1f1"/><path d="m349.386 3.299h-19.411c3.948 0 7.149 3.2 7.149 7.149v221.717h19.411v-221.718c0-3.948-3.201-7.148-7.149-7.148z" fill="#dae4ea"/><g><path d="m373.055 239.89h-214.986c-4.268 0-7.726-3.459-7.726-7.726 0-4.268 3.459-7.726 7.726-7.726h214.986c4.268 0 7.726 3.459 7.726 7.726 0 4.268-3.458 7.726-7.726 7.726z" fill="#b1e4f9"/></g><g><g><path d="m264.424 108.727c-7.957 0-12.654-.886-20.04-5.718-3.57-2.336-4.571-7.125-2.235-10.696s7.125-4.57 10.696-2.235c4.529 2.964 6.253 3.233 12.27 3.194 5.627-.037 8.891-4.231 9.543-8.112.385-2.294.224-6.429-5.191-8.343-7.273-2.57-14.722-5.514-19.943-9.609-5.355-4.201-7.81-11.431-6.408-18.869 1.516-8.041 7.132-14.444 14.657-16.711 13.611-4.099 25.684 2.1 27.016 2.821 3.754 2.031 5.149 6.719 3.118 10.472-2.023 3.737-6.681 5.138-10.427 3.143-.22-.114-7.736-3.902-15.251-1.639-2.978.896-3.76 3.882-3.928 4.777-.31 1.642.01 3.261.76 3.848 3.476 2.726 9.814 5.169 15.555 7.198 11.044 3.903 17.185 14.141 15.281 25.474-1.742 10.367-10.78 20.91-24.68 21.003-.268.001-.532.002-.793.002z" fill="#2b4d66"/></g><g><path d="m265.166 117.873c-4.268 0-7.726-3.459-7.726-7.726v-80.508c0-4.268 3.459-7.726 7.726-7.726 4.268 0 7.726 3.459 7.726 7.726v80.508c0 4.268-3.459 7.726-7.726 7.726z" fill="#2b4d66"/></g></g><g><path d="m304.251 142.99h-77.378c-4.268 0-7.726-3.459-7.726-7.726s3.459-7.726 7.726-7.726h77.378c4.268 0 7.726 3.459 7.726 7.726s-3.458 7.726-7.726 7.726z" fill="#365e7d"/></g><g><path d="m304.251 171.347h-77.378c-4.268 0-7.726-3.459-7.726-7.726 0-4.268 3.459-7.726 7.726-7.726h77.378c4.268 0 7.726 3.459 7.726 7.726.001 4.267-3.458 7.726-7.726 7.726z" fill="#365e7d"/></g><g><path d="m304.251 199.705h-77.378c-4.268 0-7.726-3.459-7.726-7.726s3.459-7.726 7.726-7.726h77.378c4.268 0 7.726 3.459 7.726 7.726s-3.458 7.726-7.726 7.726z" fill="#365e7d"/></g></g></svg>