<svg height="512" viewBox="0 0 64 64" width="512" xmlns="http://www.w3.org/2000/svg"><g id="Online_Test-Examination-Test-Computer-Pencil" data-name="Online Test-Examination-Test-Computer-Pencil"><g fill="#bddbff"><path d="m60.46 3.54a4.008 4.008 0 0 1 0 5.66l-1.42 1.42-2.83-2.83-2.83-2.83 1.42-1.42a4.008 4.008 0 0 1 5.66 0z"/><path d="m55 41v4a4 4 0 0 1 -4 4h-44a4 4 0 0 1 -4-4v-4z"/><path d="m55 15v26h-6v-20.35l5.98-5.98a1.829 1.829 0 0 1 .02.33z"/><path d="m56.21 7.79-3.57 3.57-3.64 3.64-7.63 7.64 2.82 2.82 4.81-4.81 5.98-5.98 4.06-4.05z"/><path d="m53.38 4.96-4.38 4.38-1.66 1.66-8.8 8.81 2.82 2.83h.01l7.63-7.64 3.64-3.64 3.57-3.57z"/><path d="m44.19 25.46-4.08 1.57-3.14-3.14 1.57-4.08 2.82 2.83h.01z"/><path d="m40.41 57.59a1.955 1.955 0 0 1 .59 1.41 2.006 2.006 0 0 1 -2 2h-20a2.015 2.015 0 0 1 -2-2 2.006 2.006 0 0 1 2-2h20a1.955 1.955 0 0 1 1.41.59z"/><path d="m40.11 27.03-5.11 1.97 1.97-5.11z"/><path d="m36 49 1 8h-16l1-8z"/><path d="m23.83 16.17a4.008 4.008 0 1 1 -2.83-1.17 4.025 4.025 0 0 1 2.83 1.17z"/><path d="m23.83 28.17a4.008 4.008 0 1 1 -2.83-1.17 4.025 4.025 0 0 1 2.83 1.17z"/><path d="m17 3v6a2.006 2.006 0 0 1 -2 2h-6z"/><path d="m9 11v30h-6v-26a4 4 0 0 1 4-4z"/></g><path d="m54 18v22h-4v-15h-2v15h-38v-28h5a3.009 3.009 0 0 0 3-3v-5h27a3.028 3.028 0 0 1 2.6 1.5l1.73-1a5.018 5.018 0 0 0 -4.33-2.5h-28a1.033 1.033 0 0 0 -.71.29l-8 8a1.033 1.033 0 0 0 -.29.71v29h-4v-25a3.005 3.005 0 0 1 2.25-2.91l-.5-1.93a5 5 0 0 0 -3.75 4.84v30a5 5 0 0 0 5 5h13.87l-.75 6h-1.12a3 3 0 0 0 0 6h20a3 3 0 0 0 0-6h-1.12l-.75-6h13.87a5 5 0 0 0 5-5v-27zm-38-12.59v3.59a1 1 0 0 1 -1 1h-3.59zm23 52.59a1 1 0 0 1 0 2h-20a1 1 0 0 1 0-2zm-16.87-2 .75-6h12.24l.75 6zm31.87-11a3.009 3.009 0 0 1 -3 3h-44a3.009 3.009 0 0 1 -3-3v-3h50z" fill="#3d9ae2"/><path d="m48 44h2v2h-2z" fill="#3d9ae2"/><path d="m61.163 2.837a5.006 5.006 0 0 0 -7.071 0l-16.263 16.263a.956.956 0 0 0 -.226.348l-3.536 9.192a1 1 0 0 0 1.292 1.292l9.192-3.532a.956.956 0 0 0 .348-.226l16.264-16.266a5.006 5.006 0 0 0 0-7.071zm-18.763 22.246-2.043.786-2.223-2.223.786-2.043zm.381-2.447 13.432-13.436 1.415 1.414-13.436 13.436zm-1.414-1.414-1.417-1.414 13.435-13.436 1.415 1.415zm-4.019 4.466.967.967-1.571.6zm22.4-17.194-.707.707-4.241-4.243.707-.707a3 3 0 0 1 4.243 4.243z" fill="#3d9ae2"/><path d="m25.293 13.293-1.54 1.54a5.015 5.015 0 1 0 1.414 1.414l1.54-1.54zm-1.293 5.707a3 3 0 1 1 -3-3 2.951 2.951 0 0 1 1.285.3l-2.992 2.992 1.414 1.414 2.993-2.991a2.951 2.951 0 0 1 .3 1.285z" fill="#3d9ae2"/><path d="m30 16h7v2h-7z" fill="#3d9ae2"/><path d="m30 20h4v2h-4z" fill="#3d9ae2"/><path d="m25.293 25.293-1.54 1.54a5.015 5.015 0 1 0 1.414 1.414l1.54-1.54zm-1.293 5.707a3 3 0 1 1 -3-3 2.951 2.951 0 0 1 1.285.3l-2.992 2.992 1.414 1.414 2.993-2.991a2.951 2.951 0 0 1 .3 1.285z" fill="#3d9ae2"/><path d="m30 28h2v2h-2z" fill="#3d9ae2"/><path d="m30 32h8v2h-8z" fill="#3d9ae2"/></g></svg>