<svg height="512pt" viewBox="0 0 512 512" width="512pt" xmlns="http://www.w3.org/2000/svg"><path d="m492.746094 512h-473.492188c-10.632812 0-19.253906-8.621094-19.253906-19.253906v-473.492188c0-10.632812 8.621094-19.253906 19.253906-19.253906h473.488282c10.636718 0 19.257812 8.621094 19.257812 19.253906v473.488282c0 10.636718-8.621094 19.257812-19.253906 19.257812zm0 0" fill="#f2f2f2"/><path d="m395.847656 420.054688c-1.976562 0-3.953125-.753907-5.460937-2.261719l-34.898438-34.898438c-3.019531-3.015625-3.019531-7.90625 0-10.925781 3.015625-3.015625 7.910157-3.015625 10.925781 0l34.898438 34.898438c3.015625 3.015624 3.015625 7.90625 0 10.925781-1.511719 1.507812-3.488281 2.261719-5.464844 2.261719zm0 0" fill="#426175"/><path d="m492.746094 0h-55.339844c10.636719 0 19.257812 8.621094 19.257812 19.253906v473.488282c0 10.636718-8.621093 19.257812-19.257812 19.257812h55.339844c10.632812 0 19.253906-8.621094 19.253906-19.257812v-473.488282c0-10.632812-8.621094-19.253906-19.253906-19.253906zm0 0" fill="#cdd6df"/><path d="m492.746094 0h-473.492188c-10.632812 0-19.253906 8.621094-19.253906 19.253906v57.414063h512v-57.414063c0-10.632812-8.621094-19.253906-19.253906-19.253906zm0 0" fill="#426175"/><path d="m232.832031 46.058594h-188.160156c-4.269531 0-7.726563-3.457032-7.726563-7.722656 0-4.269532 3.457032-7.726563 7.726563-7.726563h188.164063c4.265624 0 7.722656 3.457031 7.722656 7.726563 0 4.265624-3.457032 7.722656-7.726563 7.722656zm0 0" fill="#f2f2f2"/><path d="m512 76.667969v-57.414063c0-10.632812-8.621094-19.253906-19.253906-19.253906h-55.335938c10.636719.00390625 19.253906 8.621094 19.253906 19.253906v57.414063zm0 0" fill="#2c4456"/><g fill="#fed066"><path d="m383.664062 38.335938c0 5.351562-4.335937 9.691406-9.691406 9.691406-5.351562 0-9.691406-4.339844-9.691406-9.691406 0-5.355469 4.339844-9.695313 9.691406-9.695313 5.355469 0 9.691406 4.339844 9.691406 9.695313zm0 0"/><path d="m430.132812 38.335938c0 5.351562-4.339843 9.691406-9.695312 9.691406-5.351562 0-9.691406-4.339844-9.691406-9.691406 0-5.355469 4.339844-9.695313 9.691406-9.695313 5.355469 0 9.695312 4.339844 9.695312 9.695313zm0 0"/><path d="m476.597656 38.335938c0 5.351562-4.339844 9.691406-9.691406 9.691406-5.355469 0-9.695312-4.339844-9.695312-9.691406 0-5.355469 4.339843-9.695313 9.695312-9.695313 5.351562 0 9.691406 4.339844 9.691406 9.695313zm0 0"/></g><path d="m410.921875 271.929688c0 85.863281-69.609375 155.472656-155.476563 155.472656-85.863281 0-155.472656-69.609375-155.472656-155.472656 0-85.867188 69.609375-155.472657 155.472656-155.472657 85.867188 0 155.476563 69.605469 155.476563 155.472657zm0 0" fill="#33bca5"/><path d="m378.484375 271.929688c0 67.949218-55.085937 123.035156-123.039063 123.035156-67.949218 0-123.035156-55.085938-123.035156-123.035156 0-67.953126 55.085938-123.039063 123.035156-123.039063 67.953126 0 123.039063 55.085937 123.039063 123.039063zm0 0" fill="#f2f2f2"/><path d="m342.449219 184.929688c-31.109375-31.113282-74.734375-42.070313-114.671875-32.894532 21.746094 4.996094 42.394531 15.953125 59.332031 32.894532 48.050781 48.046874 48.050781 125.949218 0 174-16.9375 16.9375-37.585937 27.894531-59.332031 32.890624 39.9375 9.175782 83.558594-1.78125 114.671875-32.890624 48.046875-48.050782 48.046875-125.953126 0-174zm0 0" fill="#cdd6df"/><path d="m483.9375 482.757812-17.660156 17.664063c-3.65625 3.65625-9.585938 3.65625-13.242188 0l-72.132812-72.136719c-3.65625-3.65625-3.65625-9.582031 0-13.238281l17.660156-17.664063c3.660156-3.65625 9.585938-3.65625 13.242188 0l72.132812 72.132813c3.65625 3.660156 3.65625 9.585937 0 13.242187zm0 0" fill="#f5b556"/><path d="m205.601562 286.082031c0-18.34375-33.683593-11.195312-33.683593-36.066406 0-15.339844 12.851562-19.898437 23.941406-19.898437 6.734375 0 18.863281 1.761718 18.863281 7.460937 0 2.074219-1.453125 5.90625-4.5625 5.90625-2.796875 0-5.492187-3.9375-14.300781-3.9375-7.566406 0-12.957031 2.902344-12.957031 9.433594 0 15.335937 33.683594 8.390625 33.683594 35.960937 0 14.820313-9.949219 22.074219-23.628907 22.074219-13.472656 0-22.902343-7.046875-22.902343-12.230469 0-2.484375 2.175781-5.90625 4.765624-5.90625 3.730469 0 6.21875 8.1875 17.722657 8.1875 7.460937 0 13.058593-3.523437 13.058593-10.984375zm0 0" fill="#fd715c"/><path d="m243.328125 263.902344h15.957031c2.28125 0 3.628906 2.074218 3.628906 4.457031 0 1.96875-1.140624 4.25-3.628906 4.25h-15.957031v23.835937h30.78125c2.277344 0 3.625 2.28125 3.625 4.976563 0 2.277344-1.140625 4.765625-3.625 4.765625h-36.894531c-2.386719 0-4.871094-1.242188-4.871094-3.628906v-68.503906c0-2.382813 2.484375-3.625 4.871094-3.625h36.894531c2.484375 0 3.625 2.484374 3.625 4.765624 0 2.695313-1.347656 4.976563-3.625 4.976563h-30.78125zm0 0" fill="#fd715c"/><path d="m290.28125 283.695312v-30.15625c0-16.789062 10.050781-23.109374 23.214844-23.109374 13.058594 0 23.316406 6.320312 23.316406 23.109374v30.15625c0 16.789063-10.257812 23.113282-23.316406 23.113282-13.164063 0-23.214844-6.324219-23.214844-23.113282zm35.546875-30.15625c0-9.121093-4.664063-13.367187-12.335937-13.367187-7.769532 0-12.226563 4.246094-12.226563 13.367187v30.15625c0 9.121094 4.457031 13.371094 12.226563 13.371094 7.671874 0 12.335937-4.25 12.335937-13.371094zm0 0" fill="#fd715c"/><path d="m383.664062 38.335938c0 5.351562-4.335937 9.691406-9.691406 9.691406-5.351562 0-9.691406-4.339844-9.691406-9.691406 0-5.355469 4.339844-9.695313 9.691406-9.695313 5.355469 0 9.691406 4.339844 9.691406 9.695313zm0 0" fill="#46d1c0"/><path d="m430.132812 38.335938c0 5.351562-4.339843 9.691406-9.695312 9.691406-5.351562 0-9.691406-4.339844-9.691406-9.691406 0-5.355469 4.339844-9.695313 9.691406-9.695313 5.355469 0 9.695312 4.339844 9.695312 9.695313zm0 0" fill="#46d1c0"/><path d="m476.597656 38.335938c0 5.351562-4.339844 9.691406-9.691406 9.691406-5.355469 0-9.695312-4.339844-9.695312-9.691406 0-5.355469 4.339843-9.695313 9.695312-9.695313 5.351562 0 9.691406 4.339844 9.691406 9.695313zm0 0" fill="#46d1c0"/></svg>