<svg height="512pt" viewBox="0 0 512 512" width="512pt" xmlns="http://www.w3.org/2000/svg"><path d="m503.210938 460.96875-6.828126-6.652344-12.03125 12.03125 6.828126 6.742188c4.988281 4.996094 4.988281 13.089844 0 18.089844-5.070313 4.925781-13.152344 4.886718-18.175782-.085938l-6.742187-6.65625-12.117188 12.117188 6.824219 6.65625c7.546875 7.546874 18.546875 10.492187 28.851562 7.730468 10.308594-2.761718 18.359376-10.8125 21.121094-21.121094 2.761719-10.304687-.183594-21.304687-7.730468-28.851562zm-76.457032-50.855469 45.394532 44.371094 12.03125-12.03125-51.539063-50.433594c-3.328125-3.308593-8.703125-3.308593-12.03125 0l-30.125 30.210938c-1.648437 1.585937-2.574219 3.785156-2.558594 6.074219.015625 2.292968.972657 4.476562 2.644531 6.042968l51.457032 50.261719 12.03125-12.035156-45.398438-44.371094zm0 0" fill="#556080"/><path d="m472.148438 454.484375-18.089844 18.089844-45.398438-44.371094 18.09375-18.089844zm0 0" fill="#8697cb"/><path d="m409.601562 418.132812c-2.265624 0-4.433593-.898437-6.035156-2.5l-34.132812-34.132812c-3.234375-3.347656-3.1875-8.671875.105468-11.960938 3.289063-3.292968 8.613282-3.339843 11.960938-.105468l34.132812 34.132812c2.441407 2.441406 3.167969 6.109375 1.847657 9.300782-1.320313 3.1875-4.429688 5.265624-7.878907 5.265624zm0 0" fill="#556080"/><path d="m494.933594 482.132812c-.003906 3.394532-1.355469 6.648438-3.753906 9.046876-5.070313 4.925781-13.152344 4.886718-18.175782-.085938l-6.742187-6.65625 18.089843-18.089844 6.828126 6.742188c2.398437 2.394531 3.75 5.648437 3.753906 9.042968zm0 0" fill="#8697cb"/><g fill="#84b5cb"><path d="m17.066406 8.535156h128c4.714844 0 8.535156 3.820313 8.535156 8.53125v17.066406c0 4.714844-3.820312 8.535157-8.535156 8.535157h-128c-4.710937 0-8.53125-3.820313-8.53125-8.535157v-17.066406c0-4.710937 3.820313-8.53125 8.53125-8.53125zm0 0"/><path d="m256 76.800781h128c4.710938 0 8.535156 3.820313 8.535156 8.53125v17.066407c0 4.714843-3.824218 8.535156-8.535156 8.535156h-128c-4.710938 0-8.535156-3.820313-8.535156-8.535156v-17.066407c0-4.710937 3.824218-8.53125 8.535156-8.53125zm0 0"/><path d="m196.265625 8.535156h68.269531c4.710938 0 8.53125 3.820313 8.53125 8.53125v17.066406c0 4.714844-3.820312 8.535157-8.53125 8.535157h-68.269531c-4.710937 0-8.53125-3.820313-8.53125-8.535157v-17.066406c0-4.710937 3.820313-8.53125 8.53125-8.53125zm0 0"/><path d="m136.535156 76.800781h68.265625c4.710938 0 8.53125 3.820313 8.53125 8.53125v17.066407c0 4.714843-3.820312 8.535156-8.53125 8.535156h-68.265625c-4.714844 0-8.535156-3.820313-8.535156-8.535156v-17.066407c0-4.710937 3.820312-8.53125 8.535156-8.53125zm0 0"/><path d="m17.066406 76.800781h68.265625c4.714844 0 8.535157 3.820313 8.535157 8.53125v17.066407c0 4.714843-3.820313 8.535156-8.535157 8.535156h-68.265625c-4.710937 0-8.53125-3.820313-8.53125-8.535156v-17.066407c0-4.710937 3.820313-8.53125 8.53125-8.53125zm0 0"/><path d="m315.734375 8.535156h34.132813c4.710937 0 8.53125 3.820313 8.53125 8.53125v17.066406c0 4.714844-3.820313 8.535157-8.53125 8.535157h-34.132813c-4.714844 0-8.535156-3.820313-8.535156-8.535157v-17.066406c0-4.710937 3.820312-8.53125 8.535156-8.53125zm0 0"/><path d="m435.199219 76.800781h59.734375c4.710937 0 8.53125 3.820313 8.53125 8.53125v17.066407c0 4.714843-3.820313 8.535156-8.53125 8.535156h-59.734375c-4.710938 0-8.53125-3.820313-8.53125-8.535156v-17.066407c0-4.710937 3.820312-8.53125 8.53125-8.53125zm0 0"/><path d="m401.066406 8.535156h93.867188c4.710937 0 8.53125 3.820313 8.53125 8.53125v17.066406c0 4.714844-3.820313 8.535157-8.53125 8.535157h-93.867188c-4.710937 0-8.53125-3.820313-8.53125-8.535157v-17.066406c0-4.710937 3.820313-8.53125 8.53125-8.53125zm0 0"/><path d="m128 349.867188h-102.398438c-9.425781 0-17.066406-7.640626-17.066406-17.066407v-85.335937c0-9.425782 7.640625-17.066406 17.066406-17.066406h460.796876c9.425781 0 17.066406 7.640624 17.066406 17.066406v85.335937c0 9.425781-7.640625 17.066407-17.066406 17.066407zm0 0"/></g><path d="m486.398438 358.398438h-460.796876c-14.140624 0-25.601562-11.460938-25.601562-25.597657v-85.335937c0-14.136719 11.460938-25.597656 25.601562-25.597656h460.796876c14.140624 0 25.601562 11.460937 25.601562 25.597656v85.335937c0 14.136719-11.460938 25.597657-25.601562 25.597657zm-460.796876-119.464844c-4.714843 0-8.535156 3.820312-8.535156 8.53125v85.335937c0 4.710938 3.820313 8.53125 8.535156 8.53125h460.796876c4.714843 0 8.535156-3.820312 8.535156-8.53125v-85.335937c0-4.710938-3.820313-8.53125-8.535156-8.53125zm0 0" fill="#547580"/><path d="m426.667969 290.132812c0 75.40625-61.128907 136.535157-136.535157 136.535157s-136.53125-61.128907-136.53125-136.535157 61.125-136.53125 136.53125-136.53125 136.535157 61.125 136.535157 136.53125zm0 0" fill="#2c3e50"/><path d="m392.535156 290.132812c0 56.554688-45.847656 102.402344-102.402344 102.402344-56.554687 0-102.398437-45.847656-102.398437-102.402344 0-56.554687 45.84375-102.398437 102.398437-102.398437 56.554688 0 102.402344 45.84375 102.402344 102.398437zm0 0" fill="#90bae1"/><path d="m375.464844 290.132812c0 47.128907-38.203125 85.332032-85.332032 85.332032-47.128906 0-85.332031-38.203125-85.332031-85.332032 0-47.128906 38.203125-85.332031 85.332031-85.332031 47.128907 0 85.332032 38.203125 85.332032 85.332031zm0 0" fill="#b0d3f0"/><path d="m51.199219 324.265625c-4.710938 0-8.53125-3.820313-8.53125-8.53125v-51.199219c0-4.714844 3.820312-8.535156 8.53125-8.535156 4.714843 0 8.535156 3.820312 8.535156 8.535156v51.199219c0 4.710937-3.820313 8.53125-8.535156 8.53125zm0 0" fill="#2c3e50"/><path d="m315.734375 341.332031h-.445313c-3.394531-.171875-6.359374-2.347656-7.550781-5.527343l-17.605469-46.96875-17.605468 46.933593c-1.191406 3.183594-4.15625 5.355469-7.550782 5.53125-3.398437.207031-6.585937-1.652343-8.082031-4.710937l-34.132812-68.269532c-2.105469-4.214843-.394531-9.34375 3.824219-11.449218 4.21875-2.105469 9.34375-.394532 11.453124 3.820312l25.375 50.773438 18.722657-49.933594c1.246093-3.339844 4.433593-5.554688 7.996093-5.554688s6.75 2.214844 7.996094 5.554688l18.722656 49.933594 25.335938-50.746094c2.105469-4.21875 7.234375-5.929688 11.449219-3.824219 4.21875 2.109375 5.929687 7.234375 3.824219 11.453125l-34.132813 68.265625c-1.4375 2.878907-4.375 4.707031-7.59375 4.71875zm0 0" fill="#ff5364"/><path d="m145.066406 51.199219h-128c-9.425781 0-17.066406-7.640625-17.066406-17.066407v-17.066406c0-9.425781 7.640625-17.066406 17.066406-17.066406h128c9.425782 0 17.066406 7.640625 17.066406 17.066406v17.066406c0 9.425782-7.640624 17.066407-17.066406 17.066407zm-128-34.132813v17.066406h128v-17.066406zm0 0" fill="#547580"/><path d="m384 119.464844h-128c-9.425781 0-17.066406-7.640625-17.066406-17.066406v-17.066407c0-9.425781 7.640625-17.066406 17.066406-17.066406h128c9.425781 0 17.066406 7.640625 17.066406 17.066406v17.066407c0 9.425781-7.640625 17.066406-17.066406 17.066406zm-128-34.132813v17.066407h128v-17.066407zm0 0" fill="#547580"/><path d="m264.535156 51.199219h-68.269531c-9.425781 0-17.066406-7.640625-17.066406-17.066407v-17.066406c0-9.425781 7.640625-17.066406 17.066406-17.066406h68.269531c9.425782 0 17.066406 7.640625 17.066406 17.066406v17.066406c0 9.425782-7.640624 17.066407-17.066406 17.066407zm-68.269531-34.132813v17.066406h68.269531v-17.066406zm0 0" fill="#547580"/><path d="m204.800781 119.464844h-68.265625c-9.425781 0-17.070312-7.640625-17.070312-17.066406v-17.066407c0-9.425781 7.644531-17.066406 17.070312-17.066406h68.265625c9.425781 0 17.066407 7.640625 17.066407 17.066406v17.066407c0 9.425781-7.640626 17.066406-17.066407 17.066406zm-68.265625-34.132813v17.066407h68.265625v-17.066407zm0 0" fill="#547580"/><path d="m85.332031 119.464844h-68.265625c-9.425781 0-17.066406-7.640625-17.066406-17.066406v-17.066407c0-9.425781 7.640625-17.066406 17.066406-17.066406h68.265625c9.425781 0 17.066407 7.640625 17.066407 17.066406v17.066407c0 9.425781-7.640626 17.066406-17.066407 17.066406zm-68.265625-34.132813v17.066407h68.265625v-17.066407zm0 0" fill="#547580"/><path d="m349.867188 51.199219h-34.132813c-9.425781 0-17.066406-7.640625-17.066406-17.066407v-17.066406c0-9.425781 7.640625-17.066406 17.066406-17.066406h34.132813c9.425781 0 17.066406 7.640625 17.066406 17.066406v17.066406c0 9.425782-7.640625 17.066407-17.066406 17.066407zm-34.132813-34.132813v17.066406h34.132813v-17.066406zm0 0" fill="#547580"/><path d="m494.933594 119.464844h-59.734375c-9.425781 0-17.066407-7.640625-17.066407-17.066406v-17.066407c0-9.425781 7.640626-17.066406 17.066407-17.066406h59.734375c9.425781 0 17.066406 7.640625 17.066406 17.066406v17.066407c0 9.425781-7.640625 17.066406-17.066406 17.066406zm-59.734375-34.132813v17.066407h59.734375v-17.066407zm0 0" fill="#547580"/><path d="m494.933594 51.199219h-93.867188c-9.425781 0-17.066406-7.640625-17.066406-17.066407v-17.066406c0-9.425781 7.640625-17.066406 17.066406-17.066406h93.867188c9.425781 0 17.066406 7.640625 17.066406 17.066406v17.066406c0 9.425782-7.640625 17.066407-17.066406 17.066407zm-93.867188-34.132813v17.066406h93.867188v-17.066406zm0 0" fill="#547580"/><path d="m51.199219 238.933594c-4.710938 0-8.53125-3.820313-8.53125-8.535156v-17.066407c0-4.710937 3.820312-8.53125 8.53125-8.53125 4.714843 0 8.535156 3.820313 8.535156 8.53125v17.066407c0 4.714843-3.820313 8.535156-8.535156 8.535156zm0 0" fill="#c03a2b"/><path d="m51.199219 136.535156c-4.710938 0-8.53125-3.824218-8.53125-8.535156v-17.066406c0-4.714844 3.820312-8.535156 8.53125-8.535156 4.714843 0 8.535156 3.820312 8.535156 8.535156v17.066406c0 4.710938-3.820313 8.535156-8.535156 8.535156zm0 0" fill="#c03a2b"/><path d="m51.199219 187.734375c-4.710938 0-8.53125-3.820313-8.53125-8.535156v-17.066407c0-4.710937 3.820312-8.53125 8.53125-8.53125 4.714843 0 8.535156 3.820313 8.535156 8.53125v17.066407c0 4.714843-3.820313 8.535156-8.535156 8.535156zm0 0" fill="#c03a2b"/></svg>